<svg width="24" height="24" viewBox="0 0 24 24" fill="none" xmlns="http://www.w3.org/2000/svg">
<path d="M17.25 10.25C17.25 8.45914 15.7909 7 14 7C12.2091 7 10.75 8.45914 10.75 10.25C10.75 12.0409 12.2091 13.5 14 13.5C15.7909 13.5 17.25 12.0409 17.25 10.25Z" stroke="white" stroke-width="1.5"/>
<path d="M14 7V4.75C14 4.05964 13.4404 3.5 12.75 3.5H11.25C10.5596 3.5 10 4.05964 10 4.75V7" stroke="white" stroke-width="1.5"/>
<path d="M14 13.5C15.7909 13.5 17.25 14.9591 17.25 16.75C17.25 18.5409 15.7909 20 14 20C12.2091 20 10.75 18.5409 10.75 16.75C10.75 14.9591 12.2091 13.5 14 13.5Z" stroke="white" stroke-width="1.5"/>
<path d="M20.5 16.75C20.5 14.25 18.5 12.5 16.5 12.5" stroke="white" stroke-width="1.5" stroke-linecap="round"/>
<path d="M3.5 16.75C3.5 14.25 5.5 12.5 7.5 12.5" stroke="white" stroke-width="1.5" stroke-linecap="round"/>
</svg>
