<svg width="24" height="24" viewBox="0 0 24 24" fill="none" xmlns="http://www.w3.org/2000/svg">
<path d="M21.5 7.5C21.5 15.5 15.5 21.5 7.5 21.5C4.5 21.5 2 20.5 2 20.5C5 21 6.5 20 7.5 19C4.5 18.5 3 16.5 3 14C3.5 14.0833 4 14 4.5 14C5.5 14 6 13.5 6 13.5C3.5 12.5 2.5 10.5 2.5 8.5C3 8.66667 3.5 8.83333 4 9C2.5 7.5 2.5 5.5 4 4.5C6.5 6 8.5 7 11 7.5C11.5 6.5 12.5 5.5 14 5.5C16 5.5 17 6.5 17.5 7.5C18.5 7.5 19.5 7 20.5 6.5C20 7.5 19.5 8 18.5 8.5C19.5 8.5 20.5 8 21.5 7.5Z" stroke="white" stroke-width="1.5" stroke-linecap="round" stroke-linejoin="round"/>
</svg>
